<?xml version="1.0" encoding="utf-8"?>
<!-- Generator: Adobe Illustrator 24.3.0, SVG Export Plug-In . SVG Version: 6.00 Build 0)  -->
<svg version="1.1" xmlns="http://www.w3.org/2000/svg" xmlns:xlink="http://www.w3.org/1999/xlink" x="0px" y="0px"
	 viewBox="0 0 521 250" style="enable-background:new 0 0 521 250;" xml:space="preserve">
<style type="text/css">
	.st0{display:none;}
	.st1{display:inline;fill:#841414;}
	.st2{display:inline;fill:#0436B2;}
	.st3{display:inline;fill:#55CAF5;}
	.st4{display:inline;fill:#A7489B;}
	.st5{fill:#03B585;}
	.st6{fill:none;stroke:#03B585;stroke-width:2;stroke-miterlimit:10;}
	.st7{fill:#9A4993;}
	.st8{fill:#6A1577;}
	.st9{fill:#813084;}
	.st10{fill:#FFFFFF;}
</style>
<g id="Padding" class="st0">
	<rect x="125.9" y="168" class="st1" width="32" height="82"/>
	<rect x="111" class="st1" width="32" height="82"/>
	<rect x="204.5" y="93" transform="matrix(6.123234e-17 -1 1 6.123234e-17 98.0281 342.9719)" class="st1" width="32" height="59"/>
	
		<rect x="261.5" y="93" transform="matrix(6.123234e-17 -1 1 6.123234e-17 155.0281 399.9719)" class="st1" width="32" height="59"/>
	<rect x="13.5" y="93" transform="matrix(6.123234e-17 -1 1 6.123234e-17 -92.9719 151.9719)" class="st1" width="32" height="59"/>
	
		<rect x="475.5" y="93" transform="matrix(6.123234e-17 -1 1 6.123234e-17 369.0281 613.9719)" class="st1" width="32" height="59"/>
	<rect x="88" y="82" class="st2" width="29" height="29"/>
	<rect x="88" y="111" class="st3" width="29" height="29"/>
	<rect x="88" y="140" class="st4" width="29" height="29"/>
</g>
<g id="NEW_Logo_resize_1_pixel_down">
	<g>
		<path class="st5" d="M117,82c16.2,0,29,13.1,29,30v57h-29v-58H88V82H117z M88,111v58H59v-58H88z M191,82v87c-16.2,0-29-13.3-29-29
			V82H191z"/>
	</g>
	<line class="st6" x1="249" y1="38" x2="249" y2="212"/>
</g>
<g id="C_x23__Logo">
	<g>
		<path id="XMLID_3_" class="st7" d="M461.8,89.7c0-2.9-0.6-5.5-1.9-7.7c-1.2-2.2-3.1-4-5.6-5.5c-20.6-11.9-41.2-23.7-61.8-35.6
			c-5.6-3.2-10.9-3.1-16.5,0.2c-8.2,4.8-49.3,28.4-61.5,35.5c-5,2.9-7.5,7.4-7.5,13.2c0,23.9,0,47.8,0,71.7c0,2.9,0.6,5.4,1.8,7.6
			c1.2,2.2,3.1,4.1,5.7,5.6c12.2,7.1,53.3,30.6,61.5,35.5c5.5,3.3,10.9,3.4,16.5,0.2c20.6-11.9,41.2-23.7,61.8-35.6
			c2.6-1.5,4.4-3.4,5.7-5.6c1.2-2.2,1.8-4.7,1.8-7.6C461.8,161.3,461.8,113.6,461.8,89.7"/>
		<path id="XMLID_4_" class="st8" d="M384.6,125.3l-75.8,43.7c1.2,2.2,3.1,4.1,5.7,5.6c12.2,7.1,53.3,30.6,61.5,35.5
			c5.5,3.3,10.9,3.4,16.5,0.2c20.6-11.9,41.2-23.7,61.8-35.6c2.6-1.5,4.4-3.4,5.7-5.6L384.6,125.3"/>
		<path id="XMLID_5_" class="st8" d="M362.2,138.2c4.4,7.7,12.7,12.9,22.2,12.9c9.6,0,17.9-5.3,22.3-13l-22.1-12.8L362.2,138.2"/>
		<path id="XMLID_6_" class="st9" d="M461.8,89.7c0-2.9-0.6-5.5-1.9-7.7l-75.3,43.3l75.4,43.7c1.2-2.2,1.8-4.7,1.8-7.6
			C461.8,161.3,461.8,113.6,461.8,89.7"/>
		<path id="XMLID_9_" class="st10" d="M406.7,138.1c-4.4,7.8-12.7,13-22.3,13c-9.5,0-17.8-5.2-22.2-12.9c-2.1-3.7-3.4-8.1-3.4-12.7
			c0-14.1,11.5-25.6,25.6-25.6c9.5,0,17.7,5.1,22.1,12.8l22.4-12.9c-8.9-15.4-25.5-25.7-44.5-25.7c-28.4,0-51.4,23-51.4,51.4
			c0,9.3,2.5,18.1,6.8,25.6c8.9,15.4,25.5,25.8,44.6,25.8c19.1,0,35.8-10.4,44.7-25.9L406.7,138.1"/>
		<g id="XMLID_32_">
			<rect id="XMLID_1_" x="429.9" y="113.3" class="st10" width="5.1" height="24.6"/>
			<rect id="XMLID_30_" x="441.2" y="113.3" class="st10" width="5.1" height="24.6"/>
			
				<rect id="XMLID_31_" x="435.5" y="107.7" transform="matrix(-1.836970e-16 1 -1 -1.836970e-16 558.1072 -318.0719)" class="st10" width="5.1" height="24.6"/>
			
				<rect id="XMLID_23_" x="435.5" y="119" transform="matrix(-1.836970e-16 1 -1 -1.836970e-16 569.3894 -306.7897)" class="st10" width="5.1" height="24.6"/>
		</g>
	</g>
</g>
</svg>
